<svg width="399" height="399" viewBox="0 0 399 399" fill="none" xmlns="http://www.w3.org/2000/svg">
<circle cx="199.126" cy="199.133" r="140.478" stroke="#E9E9E9" stroke-opacity="0.12" stroke-width="0.578637"/>
<path d="M326.369 138.926C336.501 160.34 341.065 183.965 339.638 207.613C338.211 231.26 330.839 254.165 318.204 274.205C305.57 294.246 288.082 310.773 267.361 322.257C246.64 333.74 223.356 339.808 199.665 339.899L199.126 199.133L326.369 138.926Z" fill="url(#paint0_linear_164_380)"/>
<path d="M210.801 58.9104C235.252 61.0668 258.715 69.5794 278.86 83.6034C299.005 97.6274 315.134 116.675 325.644 138.857L198.435 199.134L210.801 58.9104Z" fill="url(#paint1_linear_164_380)"/>
<path d="M204 58.5091C206.594 58.5987 209.184 58.76 211.768 58.9928L199.138 199.193L204 58.5091Z" fill="#1F7BD1"/>
<path d="M204 58.5091C206.594 58.5987 209.184 58.76 211.768 58.9928L199.138 199.193L204 58.5091Z" fill="#1F7BD1"/>
<path d="M204 58.5091C206.594 58.5987 209.184 58.76 211.768 58.9928L199.138 199.193L204 58.5091Z" fill="url(#paint2_linear_164_380)"/>
<path d="M153.615 65.9355C169.854 60.3901 186.97 57.8605 204.118 58.4715L199.106 199.15L153.615 65.9355Z" fill="#1F7BD1"/>
<path d="M153.615 65.9355C169.854 60.3901 186.97 57.8605 204.118 58.4715L199.106 199.15L153.615 65.9355Z" fill="#1F7BD1"/>
<path d="M153.615 65.9355C169.854 60.3901 186.97 57.8605 204.118 58.4715L199.106 199.15L153.615 65.9355Z" fill="url(#paint3_linear_164_380)"/>
<path d="M120.647 82.3168C130.983 75.3416 142.2 69.7706 154.003 65.7501L199.391 198.999L120.647 82.3168Z" fill="#1F7BD1"/>
<path d="M120.647 82.3168C130.983 75.3416 142.2 69.7706 154.003 65.7501L199.391 198.999L120.647 82.3168Z" fill="#1F7BD1"/>
<path d="M120.647 82.3168C130.983 75.3416 142.2 69.7706 154.003 65.7501L199.391 198.999L120.647 82.3168Z" fill="url(#paint4_linear_164_380)"/>
<path d="M126.594 319.591C110.47 309.837 96.4688 296.946 85.4198 281.681L199.452 199.145L126.594 319.591Z" fill="#1F7BD1"/>
<path d="M126.594 319.591C110.47 309.837 96.4688 296.946 85.4198 281.681L199.452 199.145L126.594 319.591Z" fill="#1F7BD1"/>
<path d="M126.594 319.591C110.47 309.837 96.4688 296.946 85.4198 281.681L199.452 199.145L126.594 319.591Z" fill="#ED78FF"/>
<path d="M90.8013 288.645C74.3943 268.728 63.7776 244.685 60.1114 219.142L199.451 199.142L90.8013 288.645Z" fill="#1F7BD1"/>
<path d="M90.8013 288.645C74.3943 268.728 63.7776 244.685 60.1114 219.142L199.451 199.142L90.8013 288.645Z" fill="#1F7BD1"/>
<path d="M90.8013 288.645C74.3943 268.728 63.7776 244.685 60.1114 219.142L199.451 199.142L90.8013 288.645Z" fill="#FF392D"/>
<path d="M199.475 339.912C173.671 339.917 148.362 332.828 126.313 319.421L199.452 199.145L199.475 339.912Z" fill="#1F7BD1"/>
<path d="M199.475 339.912C173.671 339.917 148.362 332.828 126.313 319.421L199.452 199.145L199.475 339.912Z" fill="#1F7BD1"/>
<path d="M199.475 339.912C173.671 339.917 148.362 332.828 126.313 319.421L199.452 199.145L199.475 339.912Z" fill="#FF53B4"/>
<path d="M96.063 103.403C103.432 95.4376 111.697 88.3513 120.694 82.285L199.391 198.999L96.063 103.403Z" fill="#1F7BD1"/>
<path d="M96.063 103.403C103.432 95.4376 111.697 88.3513 120.694 82.285L199.391 198.999L96.063 103.403Z" fill="#1F7BD1"/>
<path d="M96.063 103.403C103.432 95.4376 111.697 88.3513 120.694 82.285L199.391 198.999L96.063 103.403Z" fill="#31D02E"/>
<path d="M60.2142 219.84C58.6612 209.392 58.2891 198.803 59.1047 188.273L199.452 199.143L60.2142 219.84Z" fill="#1F7BD1"/>
<path d="M60.2142 219.84C58.6612 209.392 58.2891 198.803 59.1047 188.273L199.452 199.143L60.2142 219.84Z" fill="#1F7BD1"/>
<path d="M60.2142 219.84C58.6612 209.392 58.2891 198.803 59.1047 188.273L199.452 199.143L60.2142 219.84Z" fill="#FF8058"/>
<path d="M69.749 144.438C76.1835 129.182 85.259 115.182 96.5581 103.079L199.452 199.144L69.749 144.438Z" fill="#1F7BD1"/>
<path d="M69.749 144.438C76.1835 129.182 85.259 115.182 96.5581 103.079L199.452 199.144L69.749 144.438Z" fill="#1F7BD1"/>
<path d="M69.749 144.438C76.1835 129.182 85.259 115.182 96.5581 103.079L199.452 199.144L69.749 144.438Z" fill="#86DC31"/>
<path d="M59.1044 188.275C60.2958 172.891 64.0085 157.807 70.0939 143.628L199.452 199.144L59.1044 188.275Z" fill="#1F7BD1"/>
<path d="M59.1044 188.275C60.2958 172.891 64.0085 157.807 70.0939 143.628L199.452 199.144L59.1044 188.275Z" fill="#1F7BD1"/>
<path d="M59.1044 188.275C60.2958 172.891 64.0085 157.807 70.0939 143.628L199.452 199.144L59.1044 188.275Z" fill="#CFDE24"/>
<defs>
<linearGradient id="paint0_linear_164_380" x1="199.126" y1="195.511" x2="199.126" y2="339.9" gradientUnits="userSpaceOnUse">
<stop stop-color="#6D1FD1"/>
<stop offset="1" stop-color="#4E1597"/>
</linearGradient>
<linearGradient id="paint1_linear_164_380" x1="231.627" y1="112.447" x2="256.465" y2="155.777" gradientUnits="userSpaceOnUse">
<stop stop-color="#1F26D1"/>
<stop offset="1" stop-color="#1219BC"/>
</linearGradient>
<linearGradient id="paint2_linear_164_380" x1="167.085" y1="93.03" x2="206.517" y2="136.839" gradientUnits="userSpaceOnUse">
<stop stop-color="#006CD0"/>
<stop offset="1" stop-color="#005DB4"/>
</linearGradient>
<linearGradient id="paint3_linear_164_380" x1="177.748" y1="61.3775" x2="199.106" y2="199.15" gradientUnits="userSpaceOnUse">
<stop stop-color="#1F9CD1"/>
<stop offset="1" stop-color="#1F9CD1"/>
</linearGradient>
<linearGradient id="paint4_linear_164_380" x1="133.969" y1="74.3581" x2="199.391" y2="198.999" gradientUnits="userSpaceOnUse">
<stop stop-color="#28C7A1"/>
<stop offset="1" stop-color="#22A888"/>
</linearGradient>
</defs>
</svg>
