<svg width="62" height="45" viewBox="0 0 62 45" fill="none" xmlns="http://www.w3.org/2000/svg">
<g clip-path="url(#clip0_226_55)">
<path d="M11.6549 20.5386C9.05048 21.194 6.77498 22.7779 5.25595 24.9927C3.73692 27.2074 3.07892 29.9007 3.40558 32.5664C3.73224 35.2321 5.02108 37.6868 7.02994 39.4692C9.0388 41.2517 11.6294 42.2393 14.315 42.2464H44.6062C46.5504 42.245 48.4723 41.832 50.2454 41.0343C52.0185 40.2367 53.6026 39.0726 54.8934 37.6186C56.1842 36.1647 57.1524 34.4538 57.7343 32.5987C58.3162 30.7436 58.4987 28.7863 58.2696 26.8556C58.0405 24.9249 57.4052 23.0646 56.4054 21.3971C55.4055 19.7296 54.0639 18.2928 52.4687 17.1812C50.8736 16.0697 49.0611 15.3085 47.1506 14.9479C45.2401 14.5873 43.2749 14.6354 41.3843 15.089L37.7218 16.0859" stroke="#6FCFCF" stroke-width="5.50748" stroke-linecap="round" stroke-linejoin="round"/>
<path d="M41.3846 15.0886C40.4434 11.3616 38.1203 8.13193 34.8861 6.05428C31.652 3.97663 27.7488 3.20646 23.9679 3.89988C20.187 4.59331 16.8112 6.69845 14.5248 9.78857C12.2384 12.8787 11.2126 16.7226 11.6552 20.541C11.6552 20.541 12.0766 22.9698 12.9385 24.3467" stroke="#6FCFCF" stroke-width="5.50748" stroke-linecap="round" stroke-linejoin="round"/>
</g>
<defs>
<clipPath id="clip0_226_55">
<rect width="62" height="45" fill="white"/>
</clipPath>
</defs>
</svg>
