<svg width="69" height="69" viewBox="0 0 69 69" fill="none" xmlns="http://www.w3.org/2000/svg">
<path d="M16.8135 56.2054C15.7796 56.2072 14.75 56.0713 13.7519 55.8014C10.7559 54.947 8.21415 52.9525 6.67191 50.2456C5.12967 47.5387 4.7098 44.3352 5.50239 41.3223L10.4563 22.5272C10.8421 21.006 11.528 19.5774 12.4736 18.325C13.4193 17.0727 14.6057 16.0219 15.963 15.2345C17.2847 14.4689 18.7452 13.9733 20.2598 13.7762C21.7744 13.5791 23.313 13.6845 24.7866 14.0863C26.353 14.5213 27.812 15.277 29.071 16.3055C30.33 17.3339 31.3617 18.6127 32.1005 20.0608H37.6285C38.3642 18.6104 39.3948 17.3297 40.6543 16.3009C41.9138 15.272 43.3744 14.5177 44.9425 14.0863C46.416 13.6845 47.9547 13.5791 49.4693 13.7762C50.9839 13.9733 52.4443 14.4689 53.766 15.2345C55.1168 16.0199 56.2988 17.0649 57.2439 18.3092C58.189 19.5536 58.8785 20.9726 59.2727 22.4846L64.2267 41.3223C65.0311 44.344 64.6145 47.5608 63.067 50.2779C61.5195 52.9951 58.9652 54.9943 55.9559 55.8439C54.4824 56.2457 52.9437 56.3511 51.4291 56.1541C49.9145 55.957 48.4541 55.4613 47.1324 54.6958C45.7794 53.9131 44.5957 52.869 43.6502 51.6243C42.7048 50.3795 42.0166 48.959 41.6257 47.4456L41.243 45.5746H28.4861L27.9971 47.4031C27.6061 48.9165 26.9179 50.337 25.9725 51.5817C25.0271 52.8265 23.8434 53.8706 22.4903 54.6533C20.7628 55.6497 18.8077 56.1842 16.8135 56.2054ZM21.7462 17.9347C20.4631 17.939 19.2031 18.276 18.0892 18.9127C16.3433 19.937 15.0743 21.6112 14.5598 23.569L9.60586 42.3641C9.08747 44.3005 9.34941 46.363 10.3354 48.1083C11.3213 49.8536 12.9526 51.1425 14.8787 51.6979C15.8089 51.9517 16.7802 52.0184 17.7364 51.8943C18.6925 51.7703 19.6146 51.4578 20.4492 50.975C21.3182 50.4734 22.0781 49.803 22.6842 49.0034C23.2903 48.2037 23.7304 47.291 23.9786 46.3188L25.2968 41.3223H44.4322L45.7291 46.3188C45.9818 47.2891 46.4236 48.2 47.0293 48.999C47.635 49.7981 48.3926 50.4696 49.2586 50.975C50.0973 51.4573 51.0229 51.7694 51.9824 51.8935C52.942 52.0175 53.9165 51.9511 54.8503 51.6979C56.7787 51.1477 58.412 49.8586 59.3954 48.1109C60.3787 46.3632 60.6326 44.298 60.1019 42.3641L55.148 23.569C54.9012 22.599 54.4639 21.6878 53.8616 20.8885C53.2593 20.0891 52.5041 19.4175 51.6398 18.9127C50.8011 18.4304 49.8755 18.1183 48.916 17.9943C47.9564 17.8702 46.9819 17.9367 46.0481 18.1898C44.8932 18.519 43.8336 19.119 42.9572 19.9399C42.0809 20.7608 41.413 21.779 41.0091 22.9099L40.4988 24.3131H29.2302L28.7199 22.9099C28.3125 21.7775 27.6408 20.7586 26.7608 19.9377C25.8808 19.1168 24.8177 18.5176 23.6597 18.1898C23.0357 18.0216 22.3924 17.9358 21.7462 17.9347Z" fill="#6FCFCF"/>
<path d="M22.1078 34.9431C21.2667 34.9431 20.4446 34.6937 19.7453 34.2264C19.046 33.7592 18.501 33.0951 18.1792 32.3181C17.8573 31.5411 17.7731 30.6861 17.9372 29.8612C18.1013 29.0363 18.5062 28.2786 19.1009 27.6839C19.6956 27.0893 20.4533 26.6843 21.2782 26.5202C22.1031 26.3561 22.958 26.4403 23.7351 26.7622C24.5121 27.084 25.1762 27.629 25.6434 28.3283C26.1107 29.0276 26.3601 29.8498 26.3601 30.6908C26.3601 31.8186 25.9121 32.9001 25.1146 33.6976C24.3171 34.4951 23.2356 34.9431 22.1078 34.9431Z" fill="#6FCFCF"/>
<path d="M47.6215 28.5648C48.7958 28.5648 49.7477 27.6129 49.7477 26.4387C49.7477 25.2644 48.7958 24.3125 47.6215 24.3125C46.4473 24.3125 45.4954 25.2644 45.4954 26.4387C45.4954 27.6129 46.4473 28.5648 47.6215 28.5648Z" fill="#6FCFCF"/>
<path d="M47.6215 37.0697C48.7958 37.0697 49.7477 36.1178 49.7477 34.9435C49.7477 33.7693 48.7958 32.8174 47.6215 32.8174C46.4473 32.8174 45.4954 33.7693 45.4954 34.9435C45.4954 36.1178 46.4473 37.0697 47.6215 37.0697Z" fill="#6FCFCF"/>
<path d="M43.3693 32.8168C44.5436 32.8168 45.4955 31.8648 45.4955 30.6906C45.4955 29.5164 44.5436 28.5645 43.3693 28.5645C42.1951 28.5645 41.2432 29.5164 41.2432 30.6906C41.2432 31.8648 42.1951 32.8168 43.3693 32.8168Z" fill="#6FCFCF"/>
<path d="M51.8737 32.8168C53.0479 32.8168 53.9999 31.8648 53.9999 30.6906C53.9999 29.5164 53.0479 28.5645 51.8737 28.5645C50.6995 28.5645 49.7476 29.5164 49.7476 30.6906C49.7476 31.8648 50.6995 32.8168 51.8737 32.8168Z" fill="#6FCFCF"/>
</svg>
