<svg width="42" height="32" viewBox="0 0 42 32" fill="none" xmlns="http://www.w3.org/2000/svg">
<path d="M35.1745 2.69577C32.537 1.50628 29.7098 0.627088 26.7533 0.127156C26.7269 0.122101 26.6997 0.125359 26.6753 0.136478C26.6509 0.147597 26.6305 0.166027 26.6171 0.189217C26.2551 0.825337 25.8517 1.65453 25.5689 2.30962C22.4333 1.84112 19.2455 1.84112 16.1099 2.30962C15.795 1.58361 15.4399 0.875716 15.0462 0.189217C15.0329 0.165742 15.0127 0.146894 14.9884 0.13519C14.964 0.123485 14.9367 0.11948 14.9101 0.123708C11.9553 0.62364 9.12808 1.50283 6.48879 2.69405C6.46608 2.70357 6.44683 2.71981 6.43362 2.74059C1.06884 10.6274 -0.40165 18.3195 0.320665 25.915C0.322675 25.9336 0.328449 25.9516 0.337637 25.9679C0.346824 25.9842 0.359232 25.9985 0.374106 26.0098C3.50539 28.2896 6.99792 30.0262 10.7055 31.1471C10.7313 31.155 10.7589 31.155 10.7848 31.147C10.8106 31.139 10.8334 31.1234 10.8503 31.1022C11.6481 30.0353 12.3551 28.9033 12.9638 27.7182C12.9722 27.702 12.9771 27.6842 12.978 27.6659C12.979 27.6477 12.976 27.6294 12.9693 27.6124C12.9626 27.5954 12.9524 27.5801 12.9392 27.5674C12.926 27.5547 12.9103 27.545 12.8931 27.5389C11.7795 27.1196 10.7004 26.6135 9.66594 26.0253C9.64735 26.0147 9.63169 25.9997 9.62035 25.9815C9.60902 25.9634 9.60237 25.9427 9.60101 25.9213C9.59964 25.9 9.6036 25.8786 9.61252 25.8591C9.62145 25.8397 9.63507 25.8227 9.65215 25.8099C9.86936 25.6495 10.0866 25.4823 10.2934 25.3151C10.3121 25.3001 10.3345 25.2905 10.3582 25.2874C10.382 25.2844 10.4061 25.288 10.4279 25.2979C17.1977 28.3388 24.5294 28.3388 31.2199 25.2979C31.2418 25.2874 31.2661 25.2833 31.2902 25.2861C31.3143 25.2888 31.3371 25.2983 31.3561 25.3134C31.5629 25.4823 31.7784 25.6495 31.9974 25.8099C32.0146 25.8225 32.0285 25.8392 32.0377 25.8585C32.0469 25.8778 32.0512 25.899 32.0501 25.9204C32.0491 25.9417 32.0428 25.9625 32.0318 25.9808C32.0208 25.9991 32.0054 26.0144 31.987 26.0253C30.9561 26.6184 29.8839 27.12 28.7582 27.5372C28.7409 27.5435 28.7251 27.5534 28.712 27.5662C28.6988 27.5791 28.6885 27.5946 28.6818 27.6117C28.6752 27.6288 28.6722 27.6472 28.6732 27.6656C28.6741 27.6839 28.679 27.7019 28.6875 27.7182C29.3081 28.9025 30.0183 30.03 30.7993 31.1005C30.8155 31.1225 30.8381 31.1389 30.864 31.1475C30.8899 31.1562 30.9179 31.1566 30.9441 31.1488C34.658 30.0311 38.1562 28.2936 41.2909 26.0098C41.3062 25.9991 41.3191 25.9853 41.3286 25.9692C41.3381 25.9532 41.3441 25.9353 41.3461 25.9167C42.208 17.1352 39.9015 9.50519 35.228 2.74404C35.2165 2.72207 35.1975 2.70494 35.1745 2.69577ZM13.9757 21.2898C11.938 21.2898 10.2572 19.4469 10.2572 17.1869C10.2572 14.9251 11.9053 13.084 13.9757 13.084C16.0616 13.084 17.7269 14.9406 17.6942 17.1869C17.6942 19.4487 16.0461 21.2898 13.9757 21.2898ZM27.7238 21.2898C25.6844 21.2898 24.0054 19.4469 24.0054 17.1869C24.0054 14.9251 25.6517 13.084 27.7238 13.084C29.8097 13.084 31.475 14.9406 31.4423 17.1869C31.4423 19.4487 29.8115 21.2898 27.7238 21.2898Z" fill="#87DFFF"/>
</svg>
