<svg width="36" height="37" viewBox="0 0 36 37" fill="none" xmlns="http://www.w3.org/2000/svg">
<path d="M17.8361 12.2109C14.612 12.2109 11.9809 14.9327 11.9809 18.268C11.9809 21.6032 14.612 24.325 17.8361 24.325C21.0602 24.325 23.6913 21.6032 23.6913 18.268C23.6913 14.9327 21.0602 12.2109 17.8361 12.2109ZM35.3972 18.268C35.3972 15.7597 35.4192 13.2742 35.283 10.7705C35.1468 7.86234 34.5055 5.28139 32.4499 3.15483C30.3898 1.02372 27.8993 0.364848 25.0881 0.223986C22.6634 0.083124 20.2607 0.105844 17.8405 0.105844C15.4158 0.105844 13.0132 0.083124 10.5929 0.223986C7.78173 0.364848 5.2868 1.02826 3.23113 3.15483C1.17106 5.28593 0.534148 7.86234 0.397981 10.7705C0.261815 13.2787 0.283777 15.7643 0.283777 18.268C0.283777 20.7717 0.261815 23.2617 0.397981 25.7655C0.534148 28.6736 1.17545 31.2545 3.23113 33.3811C5.2912 35.5122 7.78173 36.1711 10.5929 36.3119C13.0176 36.4528 15.4202 36.4301 17.8405 36.4301C20.2651 36.4301 22.6678 36.4528 25.0881 36.3119C27.8993 36.1711 30.3942 35.5077 32.4499 33.3811C34.5099 31.25 35.1468 28.6736 35.283 25.7655C35.4236 23.2617 35.3972 20.7762 35.3972 18.268ZM17.8361 27.5876C12.8506 27.5876 8.82714 23.4253 8.82714 18.268C8.82714 13.1106 12.8506 8.94835 17.8361 8.94835C22.8216 8.94835 26.8451 13.1106 26.8451 18.268C26.8451 23.4253 22.8216 27.5876 17.8361 27.5876ZM27.214 10.7432C26.05 10.7432 25.11 9.7708 25.11 8.56666C25.11 7.36251 26.05 6.39011 27.214 6.39011C28.378 6.39011 29.318 7.36251 29.318 8.56666C29.3184 8.85258 29.2642 9.13577 29.1586 9.40001C29.053 9.66424 28.898 9.90432 28.7026 10.1065C28.5071 10.3087 28.275 10.469 28.0196 10.5783C27.7642 10.6875 27.4904 10.7436 27.214 10.7432Z" fill="#87DFFF"/>
</svg>
