<svg width="38" height="38" viewBox="0 0 38 38" fill="none" xmlns="http://www.w3.org/2000/svg">
<path fill-rule="evenodd" clip-rule="evenodd" d="M37.4312 18.734C37.4312 29.0125 29.0977 37.346 18.8192 37.346C8.54078 37.346 0.207275 29.0125 0.207275 18.734C0.207275 8.45558 8.54078 0.12207 18.8192 0.12207C29.0977 0.12207 37.4312 8.45558 37.4312 18.734ZM30.7433 17.273C31.0442 17.7026 31.2148 18.2098 31.2334 18.734C31.2415 19.2469 31.1043 19.7516 30.8375 20.1897C30.5707 20.6277 30.1853 20.9813 29.7259 21.2094C29.7476 21.4824 29.7476 21.7554 29.7259 22.0284C29.7259 26.1974 24.8681 29.5848 18.8751 29.5848C12.882 29.5848 8.0243 26.1974 8.0243 22.0284C8.00335 21.7558 8.00335 21.482 8.0243 21.2094C7.66939 21.0433 7.35466 20.8023 7.10175 20.5029C6.84884 20.2036 6.66375 19.8531 6.55919 19.4754C6.45463 19.0977 6.4331 18.7019 6.49606 18.3151C6.55902 17.9283 6.70498 17.5598 6.92392 17.2348C7.14286 16.9097 7.42958 16.636 7.76437 16.4323C8.09916 16.2287 8.47408 16.0999 8.86336 16.0549C9.25265 16.0099 9.64705 16.0497 10.0195 16.1716C10.3919 16.2936 10.7335 16.4947 11.0208 16.7612C13.1654 15.3067 15.6885 14.511 18.2795 14.4719L19.6568 8.01354C19.6722 7.93878 19.7024 7.86782 19.7455 7.8048C19.7886 7.74177 19.8438 7.68792 19.9078 7.64637C19.9719 7.60482 20.0435 7.5764 20.1186 7.56275C20.1938 7.5491 20.2709 7.5505 20.3454 7.56686L24.9054 8.47884C25.128 8.09625 25.4798 7.80556 25.8975 7.65895C26.3152 7.51233 26.7715 7.5194 27.1844 7.67888C27.5974 7.83836 27.94 8.1398 28.1507 8.52911C28.3614 8.91841 28.4265 9.37008 28.3342 9.80304C28.242 10.236 27.9984 10.6219 27.6473 10.8914C27.2961 11.161 26.8604 11.2966 26.4183 11.2738C25.9762 11.2511 25.5567 11.0715 25.2351 10.7673C24.9134 10.4632 24.7107 10.0543 24.6634 9.61417L20.6804 8.77664L19.4707 14.5836C22.0302 14.6385 24.519 15.4336 26.6363 16.8728C26.9189 16.6011 27.257 16.3938 27.6274 16.2651C27.9978 16.1365 28.3917 16.0895 28.7819 16.1276C29.1721 16.1656 29.5495 16.2876 29.8881 16.4854C30.2267 16.6831 30.5184 16.9518 30.7433 17.273ZM12.9348 19.5607C12.7989 19.764 12.7044 19.992 12.6567 20.2318C12.609 20.4716 12.6089 20.7185 12.6566 20.9583C12.7529 21.4425 13.0376 21.8688 13.4481 22.1431C13.8587 22.4175 14.3614 22.5176 14.8457 22.4213C15.0855 22.3736 15.3135 22.2792 15.5168 22.1434C15.7201 22.0075 15.8947 21.833 16.0306 21.6298C16.3049 21.2192 16.405 20.7165 16.3087 20.2322C16.2124 19.7479 15.9277 19.3217 15.5172 19.0473C15.1066 18.773 14.6039 18.6729 14.1196 18.7692C13.6353 18.8655 13.2091 19.1502 12.9348 19.5607ZM18.8379 27.1466C20.4897 27.2149 22.1151 26.7837 23.435 25.788C23.5337 25.6917 23.5902 25.5602 23.5919 25.4223C23.5937 25.2844 23.5406 25.1515 23.4443 25.0528C23.3967 25.0039 23.3398 24.9649 23.2771 24.938C23.2144 24.9111 23.1469 24.8968 23.0787 24.8959C22.9408 24.8941 22.8079 24.9472 22.7091 25.0435C21.5796 25.8538 20.2073 26.2543 18.8192 26.1788C17.4329 26.2408 16.067 25.8271 14.948 25.0063C14.8515 24.9271 14.7291 24.8867 14.6045 24.8928C14.4799 24.8989 14.362 24.9512 14.2738 25.0394C14.1856 25.1276 14.1333 25.2455 14.1272 25.3701C14.1211 25.4947 14.1616 25.6171 14.2407 25.7135C15.5612 26.7086 17.1858 27.2151 18.8379 27.1466ZM22.0655 22.2176C22.3726 22.4223 22.7138 22.6053 23.0814 22.6053C23.3338 22.6083 23.5842 22.5598 23.8173 22.4628C24.0504 22.3659 24.2613 22.2225 24.4372 22.0414C24.6131 21.8603 24.7502 21.6453 24.8403 21.4095C24.9304 21.1736 24.9715 20.9219 24.9612 20.6697C24.9611 20.3482 24.8777 20.0322 24.7191 19.7525C24.5606 19.4729 24.3323 19.239 24.0565 19.0738C23.7807 18.9086 23.4669 18.8176 23.1455 18.8097C22.8241 18.8019 22.5061 18.8774 22.2226 19.029C21.9391 19.1805 21.6996 19.4029 21.5276 19.6746C21.3556 19.9462 21.2569 20.2577 21.2411 20.5788C21.2252 20.8999 21.2929 21.2196 21.4373 21.5068C21.5818 21.794 21.7982 22.0389 22.0655 22.2176Z" fill="#87DFFF"/>
</svg>
