<svg width="38" height="38" viewBox="0 0 38 38" fill="none" xmlns="http://www.w3.org/2000/svg">
<path fill-rule="evenodd" clip-rule="evenodd" d="M37.4161 18.9704C37.4161 29.2488 29.0826 37.5823 18.8041 37.5823C8.52565 37.5823 0.192139 29.2488 0.192139 18.9704C0.192139 8.69191 8.52565 0.358398 18.8041 0.358398C29.0826 0.358398 37.4161 8.69191 37.4161 18.9704ZM19.471 14.0987C17.661 14.8509 14.0425 16.4097 8.61716 18.7734C7.73619 19.1239 7.27399 19.4667 7.23212 19.8017C7.16077 20.3694 7.87113 20.5927 8.83585 20.8952C8.96768 20.937 9.10417 20.9789 9.24376 21.0254C10.1945 21.3341 11.4725 21.6955 12.1364 21.7094C12.7397 21.7218 13.4128 21.4737 14.1558 20.965C19.2244 17.5419 21.841 15.8125 22.0054 15.7753C22.1217 15.7489 22.283 15.7148 22.3916 15.8125C22.5001 15.9087 22.4893 16.0917 22.4784 16.1413C22.4071 16.4407 19.6246 19.0293 18.1822 20.3694C17.7324 20.7866 17.4144 21.0828 17.3493 21.1511C17.2035 21.3015 17.0546 21.4458 16.9119 21.5838C16.0278 22.4337 15.3671 23.0728 16.9491 24.115C17.7091 24.616 18.3171 25.0301 18.9235 25.4427C19.5858 25.894 20.2465 26.3438 21.1027 26.9053C21.3198 27.048 21.5277 27.1953 21.7308 27.3395C22.5017 27.8902 23.195 28.3834 24.0511 28.3058C24.5475 28.2593 25.0624 27.7924 25.3229 26.3981C25.9387 23.1007 27.1516 15.9599 27.4323 13.0161C27.4494 12.7717 27.439 12.5261 27.4013 12.284C27.3787 12.0885 27.2835 11.9086 27.1345 11.7799C26.9127 11.5985 26.5684 11.5597 26.4133 11.5628C25.7138 11.5752 24.6405 11.949 19.471 14.0987Z" fill="#87DFFF"/>
</svg>
