<svg width="41" height="33" viewBox="0 0 41 33" fill="none" xmlns="http://www.w3.org/2000/svg">
<path d="M40.8414 3.95696C39.3722 4.60797 37.794 5.04785 36.1348 5.24667C37.8468 4.22228 39.1276 2.61 39.7382 0.710674C38.1298 1.66607 36.3694 2.33856 34.5336 2.69891C33.2991 1.38081 31.664 0.507145 29.8821 0.213568C28.1001 -0.080009 26.2711 0.222924 24.679 1.07534C23.0869 1.92775 21.8208 3.28194 21.0772 4.92768C20.3336 6.57342 20.1541 8.41862 20.5667 10.1768C17.3075 10.0132 14.1192 9.16605 11.2086 7.69046C8.29804 6.21486 5.73025 4.14375 3.67191 1.61154C2.96811 2.8256 2.56342 4.2332 2.56342 5.7323C2.56264 7.08183 2.89497 8.41069 3.53094 9.60097C4.1669 10.7913 5.08684 11.8062 6.20912 12.5557C4.90757 12.5142 3.63474 12.1626 2.49656 11.5299V11.6354C2.49643 13.5282 3.15116 15.3627 4.34964 16.8277C5.54813 18.2927 7.21656 19.2979 9.07183 19.6728C7.86443 19.9996 6.59856 20.0477 5.36983 19.8136C5.89328 21.4422 6.91291 22.8664 8.28598 23.8867C9.65904 24.9071 11.3168 25.4725 13.0272 25.5038C10.1237 27.7831 6.53795 29.0195 2.8467 29.014C2.19284 29.0142 1.53953 28.976 0.890137 28.8997C4.63696 31.3087 8.99853 32.5873 13.453 32.5823C28.5319 32.5823 36.7752 20.0934 36.7752 9.26186C36.7752 8.90996 36.7664 8.55454 36.7506 8.20264C38.354 7.04308 39.7381 5.60719 40.8379 3.96224L40.8414 3.95696Z" fill="#87DFFF"/>
</svg>
